<svg xmlns="http://www.w3.org/2000/svg" viewBox="0 0 150 150">
  <circle cx="75.35" cy="82.56" r="11.64" fill="currentColor"/>
  <rect x="70.69" y="15.07" width="9.31" height="13.96" fill="currentColor"/>
  <rect x="57.89" y="9.25" width="34.91" height="5.82" fill="currentColor"/>
  <rect x="68.36" y="19.72" width="13.96" height="2.33" fill="currentColor"/>
  <circle cx="58.47" cy="12.16" r="2.91" fill="currentColor"/>
  <circle cx="92.22" cy="12.16" r="2.91" fill="currentColor"/>
  <path d="M111.42,128.22c-9.92,7.85-22.45,12.53-36.08,12.53-32.13,0-58.19-26.05-58.19-58.19s26.05-58.19,58.19-58.19c13.63,0,26.16,4.68,36.08,12.53-2.17,1.71-4.21,3.58-6.11,5.58-8.35-6.26-18.73-9.96-29.97-9.96-27.64,0-50.04,22.4-50.04,50.04s22.4,50.04,50.04,50.04c11.24,0,21.61-3.71,29.97-9.96,1.9,2,3.94,3.86,6.11,5.58Z" fill="currentColor" fill-rule="evenodd"/>
  <circle cx="108.51" cy="40.09" r="4.07" fill="currentColor"/>
  <circle cx="108.51" cy="125.04" r="4.07" fill="currentColor"/>
  <path d="M45.99,55.07c7.29-7.45,17.46-12.08,28.7-12.08,22.17,0,40.15,17.98,40.15,40.15s-17.97,40.15-40.15,40.15c-13.73,0-25.85-6.89-33.09-17.41,1.81-.95,3.51-2.07,5.08-3.35,6.15,8.87,16.4,14.68,28.02,14.68,18.81,0,34.07-15.25,34.07-34.07s-15.25-34.07-34.07-34.07c-9.5,0-18.1,3.89-24.28,10.17-1.33-1.53-2.82-2.93-4.43-4.17Z" fill="#2b06ff" fill-rule="evenodd"/>
  <path d="M103.47,111.22c-7.29,7.45-17.45,12.08-28.7,12.08-22.17,0-40.15-17.97-40.15-40.15s17.97-40.15,40.15-40.15c13.73,0,25.85,6.89,33.09,17.41-1.81.95-3.51,2.07-5.08,3.35-6.15-8.87-16.4-14.68-28.02-14.68-18.81,0-34.07,15.25-34.07,34.07s15.25,34.07,34.07,34.07c9.5,0,18.1-3.89,24.27-10.17,1.33,1.53,2.82,2.93,4.43,4.17h.01Z" fill="#ff0408" fill-rule="evenodd"/>
  <rect x="87.89" y="76.22" width="3.34" height="43.43" transform="translate(-43.02 92.01) rotate(-45)" fill="currentColor"/>
  <rect x="68.79" y="69.5" width="44.4" height="3.42" transform="translate(-24.39 65.07) rotate(-35)" fill="currentColor"/>
  <rect x="36.84" y="32.46" width="4.65" height="10.12" transform="translate(-15.04 35.54) rotate(-41.68)" fill="currentColor"/>
  <line x1="31.32" y1="36.22" x2="38.31" y2="30" stroke-linecap="round" stroke-width="4px" fill="currentColor" stroke="currentColor"/>
</svg>